<svg width="480" height="360" viewBox="0 0 480 360" fill="none" xmlns="http://www.w3.org/2000/svg">
  <defs>
    <linearGradient id="bgGradient" x1="62" y1="52" x2="420" y2="308" gradientUnits="userSpaceOnUse">
      <stop stop-color="#EEF2FF" />
      <stop offset="1" stop-color="#C7D2FE" />
    </linearGradient>
    <linearGradient id="accentGradient" x1="140" y1="72" x2="340" y2="288" gradientUnits="userSpaceOnUse">
      <stop stop-color="#6366F1" />
      <stop offset="1" stop-color="#8B5CF6" />
    </linearGradient>
    <linearGradient id="cardGradient" x1="40" y1="-10" x2="180" y2="130" gradientUnits="userSpaceOnUse">
      <stop stop-color="#FFFFFF" stop-opacity="0.9" />
      <stop offset="1" stop-color="#E0E7FF" stop-opacity="0.6" />
    </linearGradient>
    <filter id="dropShadow" x="0" y="0" width="480" height="360" filterUnits="userSpaceOnUse" color-interpolation-filters="sRGB">
      <feOffset dy="12" />
      <feGaussianBlur stdDeviation="22" result="blur" />
      <feColorMatrix type="matrix" values="0 0 0 0 0.38 0 0 0 0 0.46 0 0 0 0 0.97 0 0 0 0.18 0" />
      <feBlend in2="SourceGraphic" result="shape" />
    </filter>
  </defs>
  <rect x="32" y="28" width="416" height="300" rx="32" fill="url(#bgGradient)" filter="url(#dropShadow)" />
  <g transform="translate(80 64)">
    <rect x="0" y="0" width="200" height="120" rx="18" fill="url(#cardGradient)" />
    <rect x="22" y="28" width="156" height="12" rx="6" fill="#3730A3" fill-opacity="0.85" />
    <rect x="22" y="52" width="132" height="10" rx="5" fill="#4C1D95" fill-opacity="0.25" />
    <rect x="22" y="74" width="96" height="10" rx="5" fill="#4C1D95" fill-opacity="0.2" />
    <circle cx="46" cy="96" r="8" fill="#6366F1" />
    <circle cx="82" cy="96" r="8" fill="#A855F7" />
    <circle cx="118" cy="96" r="8" fill="#C084FC" />
  </g>
  <g transform="translate(262 86)">
    <rect x="0" y="0" width="152" height="192" rx="28" fill="white" fill-opacity="0.92" />
    <rect x="24" y="48" width="104" height="16" rx="8" fill="#312E81" fill-opacity="0.9" />
    <rect x="24" y="76" width="104" height="14" rx="7" fill="#6366F1" fill-opacity="0.25" />
    <rect x="24" y="102" width="104" height="14" rx="7" fill="#6366F1" fill-opacity="0.18" />
    <g transform="translate(24 138)">
      <circle cx="22" cy="22" r="22" fill="url(#accentGradient)" />
      <path d="M18 23.5l4.2 4.2 10-10.2" stroke="white" stroke-width="4" stroke-linecap="round" stroke-linejoin="round" />
    </g>
    <g transform="translate(68 18)">
      <circle cx="20" cy="20" r="20" fill="#EEF2FF" />
      <path d="M12 22h16M20 14v16" stroke="#4338CA" stroke-width="4" stroke-linecap="round" />
    </g>
  </g>
  <g transform="translate(112 230)">
    <rect x="0" y="0" width="120" height="72" rx="18" fill="#312E81" fill-opacity="0.85" />
    <path d="M24 48c12-20 24-24 48-36 12-6 24 12 36 6 12-6 12-30 24-36" stroke="#C4B5FD" stroke-width="6" stroke-linecap="round" stroke-linejoin="round" fill="none" />
    <circle cx="28" cy="46" r="6" fill="#FACC15" />
    <circle cx="76" cy="26" r="6" fill="#F472B6" />
    <circle cx="100" cy="10" r="6" fill="#22D3EE" />
  </g>
  <circle cx="98" cy="102" r="18" fill="#4C1D95" fill-opacity="0.35" />
  <circle cx="398" cy="86" r="14" fill="#A855F7" fill-opacity="0.28" />
  <circle cx="384" cy="256" r="22" fill="#3730A3" fill-opacity="0.18" />
</svg>
